# MagicaVoxel @ Ephtracy

# material
mtllib treeV3.mtl
usemtl palette

# normals
vn -1 0 0
vn 1 0 0
vn 0 0 1
vn 0 0 -1
vn 0 -1 0
vn 0 1 0

# texcoords
vt 0.373047 0.5
vt 0.892578 0.5

# verts
v -25 51 -2
v -25 51 -10
v -25 54 13
v -25 54 -2
v -25 54 -10
v -25 54 -23
v -25 75 13
v -25 75 -23
v -20 44 -3
v -20 44 -7
v -20 49 -3
v -20 49 -7
v -19 48 -2
v -19 48 -3
v -19 49 -3
v -19 49 -7
v -19 51 -2
v -19 51 -7
v -12 24 -2
v -12 24 -8
v -12 30 -2
v -12 30 -3
v -12 44 -3
v -12 44 -7
v -12 49 -7
v -12 49 -8
v -11 45 7
v -11 45 -3
v -11 49 3
v -11 49 -3
v -11 54 7
v -11 54 3
v -6 47 25
v -6 47 3
v -6 54 13
v -6 54 3
v -6 72 25
v -6 72 13
v -6 75 13
v -6 75 -9
v -6 91 13
v -6 91 -9
v -5 0 -0
v -5 0 -10
v -5 5 -0
v -5 5 -10
v -1 29 1
v -1 29 -2
v -1 30 -2
v -1 30 -8
v -1 31 -4
v -1 31 -8
v -1 44 1
v -1 44 -4
v 0 1 2
v 0 1 -0
v 0 5 -0
v 0 5 -10
v 0 8 2
v 0 8 -0
v 0 15 -0
v 0 15 -1
v 0 24 -2
v 0 24 -8
v 0 29 -1
v 0 29 -2
v 0 29 -8
v 0 29 -10
v 1 29 -8
v 1 29 -10
v 1 31 -4
v 1 31 -8
v 1 31 -10
v 1 31 -17
v 1 34 -4
v 1 34 -7
v 1 35 -7
v 1 35 -13
v 1 40 6
v 1 40 1
v 1 43 6
v 1 43 3
v 1 44 2
v 1 44 1
v 1 47 6
v 1 47 3
v 1 49 -17
v 1 49 -22
v 1 53 -13
v 1 53 -18
v 1 54 3
v 1 54 2
v 1 54 -18
v 1 54 -22
v 8 57 -23
v 8 57 -30
v 8 75 -9
v 8 75 -23
v 8 78 -9
v 8 78 -30
v 11 34 -5
v 11 34 -10
v 11 36 -10
v 11 36 -17
v 11 42 -5
v 11 42 -17
v 12 42 -5
v 12 42 -17
v 12 43 -5
v 12 43 -17
v 13 43 -12
v 13 43 -17
v 13 57 -12
v 13 57 -17
v 13 59 -12
v 13 59 -17
v 20 53 -14
v 20 53 -17
v 20 57 -14
v 20 57 -17
v -15 48 -2
v -15 48 -3
v -15 49 -3
v -15 49 -7
v -15 51 -5
v -15 51 -7
v -15 54 -2
v -15 54 -5
v -9 51 -5
v -9 51 -10
v -9 54 -5
v -9 54 -10
v -7 30 -3
v -7 30 -8
v -7 45 7
v -7 45 -3
v -7 49 3
v -7 49 -8
v -7 54 7
v -7 54 3
v 4 29 1
v 4 29 -1
v 4 34 -1
v 4 34 -4
v 4 40 6
v 4 40 1
v 4 43 6
v 4 43 3
v 4 44 2
v 4 44 -4
v 4 47 6
v 4 47 3
v 4 54 3
v 4 54 2
v 5 35 -13
v 5 35 -17
v 5 49 -17
v 5 49 -22
v 5 53 -13
v 5 53 -18
v 5 54 -18
v 5 54 -22
v 6 31 -10
v 6 31 -17
v 6 34 -7
v 6 34 -10
v 6 35 -7
v 6 35 -17
v 7 15 -1
v 7 15 -10
v 7 28 -4
v 7 28 -10
v 7 34 -1
v 7 34 -4
v 8 8 -0
v 8 8 -10
v 8 15 -0
v 8 15 -10
v 10 0 -0
v 10 0 -10
v 10 1 2
v 10 1 -0
v 10 8 2
v 10 8 -10
v 11 54 3
v 11 54 -23
v 11 57 3
v 11 57 -12
v 11 57 -17
v 11 57 -23
v 11 59 -12
v 11 59 -17
v 17 28 -4
v 17 28 -10
v 17 34 -4
v 17 34 -5
v 17 36 -10
v 17 36 -17
v 17 43 -5
v 17 43 -12
v 17 47 25
v 17 47 3
v 17 49 -12
v 17 49 -17
v 17 53 -12
v 17 53 -17
v 17 57 6
v 17 57 3
v 17 57 -12
v 17 57 -17
v 17 72 25
v 17 72 13
v 17 78 6
v 17 78 -9
v 17 91 13
v 17 91 -9
v 23 49 -12
v 23 49 -17
v 23 51 -14
v 23 51 -17
v 23 53 -12
v 23 53 -14
v 24 51 -14
v 24 51 -17
v 24 57 -14
v 24 57 -17
v 34 57 6
v 34 57 -30
v 34 78 6
v 34 78 -30
v -6 47 25
v -6 72 25
v 17 47 25
v 17 72 25
v -25 54 13
v -25 75 13
v -6 54 13
v -6 72 13
v -6 75 13
v -6 91 13
v 17 72 13
v 17 91 13
v -11 45 7
v -11 54 7
v -7 45 7
v -7 54 7
v 1 40 6
v 1 43 6
v 1 47 6
v 4 40 6
v 4 43 6
v 4 47 6
v 17 57 6
v 17 78 6
v 34 57 6
v 34 78 6
v 0 1 2
v 0 8 2
v 10 1 2
v 10 8 2
v -1 29 1
v -1 44 1
v 1 40 1
v 1 44 1
v 4 29 1
v 4 40 1
v -5 0 -0
v -5 5 -0
v 0 1 -0
v 0 5 -0
v 0 8 -0
v 0 15 -0
v 8 8 -0
v 8 15 -0
v 10 0 -0
v 10 1 -0
v 0 15 -1
v 0 29 -1
v 4 29 -1
v 4 34 -1
v 7 15 -1
v 7 34 -1
v -25 51 -2
v -25 54 -2
v -19 48 -2
v -19 51 -2
v -19 54 -2
v -15 48 -2
v -15 54 -2
v -12 24 -2
v -12 30 -2
v -1 29 -2
v -1 30 -2
v 0 24 -2
v 0 29 -2
v -20 44 -3
v -20 49 -3
v -19 48 -3
v -19 49 -3
v -15 48 -3
v -15 49 -3
v -12 30 -3
v -12 44 -3
v -11 45 -3
v -11 49 -3
v -7 30 -3
v -7 45 -3
v 7 28 -4
v 7 34 -4
v 17 28 -4
v 17 34 -4
v -15 51 -5
v -15 54 -5
v -9 51 -5
v -9 54 -5
v 11 34 -5
v 11 42 -5
v 12 42 -5
v 12 43 -5
v 17 34 -5
v 17 43 -5
v 1 34 -7
v 1 35 -7
v 6 34 -7
v 6 35 -7
v 13 43 -12
v 13 57 -12
v 17 43 -12
v 17 49 -12
v 17 53 -12
v 17 57 -12
v 23 49 -12
v 23 53 -12
v 1 35 -13
v 1 53 -13
v 5 35 -13
v 5 53 -13
v 20 53 -14
v 20 57 -14
v 23 51 -14
v 23 53 -14
v 24 51 -14
v 24 57 -14
v 11 57 -17
v 11 59 -17
v 13 57 -17
v 13 59 -17
v 1 53 -18
v 1 54 -18
v 5 53 -18
v 5 54 -18
v -11 49 3
v -11 54 3
v -7 49 3
v -7 54 3
v -6 47 3
v -6 54 3
v 1 47 3
v 1 54 3
v 4 47 3
v 4 54 3
v 11 54 3
v 11 57 3
v 17 47 3
v 17 57 3
v 1 44 2
v 1 54 2
v 4 44 2
v 4 54 2
v -1 31 -4
v -1 44 -4
v 1 31 -4
v 1 34 -4
v 4 34 -4
v 4 44 -4
v -20 44 -7
v -20 49 -7
v -19 49 -7
v -19 51 -7
v -15 49 -7
v -15 51 -7
v -12 44 -7
v -12 49 -7
v -12 24 -8
v -12 49 -8
v -7 30 -8
v -7 49 -8
v -1 30 -8
v -1 31 -8
v 0 24 -8
v 0 29 -8
v 1 29 -8
v 1 31 -8
v -6 75 -9
v -6 91 -9
v 8 75 -9
v 8 78 -9
v 17 78 -9
v 17 91 -9
v -25 51 -10
v -25 54 -10
v -9 51 -10
v -9 54 -10
v -5 0 -10
v -5 5 -10
v 0 5 -10
v 0 29 -10
v 1 29 -10
v 1 31 -10
v 6 31 -10
v 6 34 -10
v 7 15 -10
v 7 28 -10
v 8 8 -10
v 8 15 -10
v 10 0 -10
v 10 8 -10
v 11 34 -10
v 11 36 -10
v 17 28 -10
v 17 36 -10
v 11 57 -12
v 11 59 -12
v 13 57 -12
v 13 59 -12
v 1 31 -17
v 1 49 -17
v 5 35 -17
v 5 49 -17
v 6 31 -17
v 6 35 -17
v 11 36 -17
v 11 42 -17
v 12 42 -17
v 12 43 -17
v 13 43 -17
v 13 57 -17
v 17 36 -17
v 17 49 -17
v 17 53 -17
v 17 57 -17
v 20 53 -17
v 20 57 -17
v 23 49 -17
v 23 51 -17
v 24 51 -17
v 24 57 -17
v 1 49 -22
v 1 54 -22
v 5 49 -22
v 5 54 -22
v -25 54 -23
v -25 75 -23
v 8 57 -23
v 8 75 -23
v 11 54 -23
v 11 57 -23
v 8 57 -30
v 8 78 -30
v 34 57 -30
v 34 78 -30
v -5 0 -0
v 10 0 -0
v -5 0 -10
v 10 0 -10
v 0 1 2
v 10 1 2
v 0 1 -0
v 10 1 -0
v -12 24 -2
v 0 24 -2
v -12 24 -8
v 0 24 -8
v 7 28 -4
v 17 28 -4
v 7 28 -10
v 17 28 -10
v -1 29 1
v 4 29 1
v 0 29 -1
v 4 29 -1
v -1 29 -2
v 0 29 -2
v 1 31 -10
v 6 31 -10
v 1 31 -17
v 6 31 -17
v 11 36 -10
v 17 36 -10
v 11 36 -17
v 17 36 -17
v 1 40 6
v 4 40 6
v 1 40 1
v 4 40 1
v -20 44 -3
v -12 44 -3
v -20 44 -7
v -12 44 -7
v -11 45 7
v -7 45 7
v -11 45 -3
v -7 45 -3
v -6 47 25
v 17 47 25
v 1 47 6
v 4 47 6
v -6 47 3
v 1 47 3
v 4 47 3
v 17 47 3
v -19 48 -2
v -15 48 -2
v -19 48 -3
v -15 48 -3
v 17 49 -12
v 23 49 -12
v 1 49 -17
v 5 49 -17
v 17 49 -17
v 23 49 -17
v 1 49 -22
v 5 49 -22
v -25 51 -2
v -19 51 -2
v -15 51 -5
v -9 51 -5
v -19 51 -7
v -15 51 -7
v -25 51 -10
v -9 51 -10
v 23 51 -14
v 24 51 -14
v 23 51 -17
v 24 51 -17
v -25 54 13
v -6 54 13
v -11 54 7
v -7 54 7
v -11 54 3
v -7 54 3
v -6 54 3
v 1 54 3
v 4 54 3
v 11 54 3
v 1 54 2
v 4 54 2
v -25 54 -2
v -19 54 -2
v -15 54 -2
v -15 54 -5
v -9 54 -5
v -25 54 -10
v -9 54 -10
v 1 54 -18
v 5 54 -18
v 1 54 -22
v 5 54 -22
v -25 54 -23
v 11 54 -23
v 17 57 6
v 34 57 6
v 11 57 3
v 17 57 3
v 11 57 -12
v 13 57 -12
v 17 57 -12
v 20 57 -14
v 24 57 -14
v 11 57 -17
v 13 57 -17
v 17 57 -17
v 20 57 -17
v 24 57 -17
v 8 57 -23
v 11 57 -23
v 8 57 -30
v 34 57 -30
v 11 59 -12
v 13 59 -12
v 11 59 -17
v 13 59 -17
v -5 5 -0
v 0 5 -0
v -5 5 -10
v 0 5 -10
v 0 8 2
v 10 8 2
v 0 8 -0
v 8 8 -0
v 8 8 -10
v 10 8 -10
v 0 15 -0
v 8 15 -0
v 0 15 -1
v 7 15 -1
v 7 15 -10
v 8 15 -10
v 0 29 -8
v 1 29 -8
v 0 29 -10
v 1 29 -10
v -12 30 -2
v -1 30 -2
v -12 30 -3
v -7 30 -3
v -7 30 -8
v -1 30 -8
v -1 31 -4
v 1 31 -4
v -1 31 -8
v 1 31 -8
v 4 34 -1
v 7 34 -1
v 1 34 -4
v 4 34 -4
v 7 34 -4
v 17 34 -4
v 11 34 -5
v 17 34 -5
v 1 34 -7
v 6 34 -7
v 6 34 -10
v 11 34 -10
v 1 35 -7
v 6 35 -7
v 1 35 -13
v 5 35 -13
v 5 35 -17
v 6 35 -17
v 11 42 -5
v 12 42 -5
v 11 42 -17
v 12 42 -17
v 12 43 -5
v 17 43 -5
v 13 43 -12
v 17 43 -12
v 12 43 -17
v 13 43 -17
v 1 44 2
v 4 44 2
v -1 44 1
v 1 44 1
v -1 44 -4
v 4 44 -4
v -11 49 3
v -7 49 3
v -20 49 -3
v -19 49 -3
v -15 49 -3
v -11 49 -3
v -20 49 -7
v -19 49 -7
v -15 49 -7
v -12 49 -7
v -12 49 -8
v -7 49 -8
v 17 53 -12
v 23 53 -12
v 1 53 -13
v 5 53 -13
v 20 53 -14
v 23 53 -14
v 17 53 -17
v 20 53 -17
v 1 53 -18
v 5 53 -18
v -6 72 25
v 17 72 25
v -6 72 13
v 17 72 13
v -25 75 13
v -6 75 13
v -6 75 -9
v 8 75 -9
v -25 75 -23
v 8 75 -23
v 17 78 6
v 34 78 6
v 8 78 -9
v 17 78 -9
v 8 78 -30
v 34 78 -30
v -6 91 13
v 17 91 13
v -6 91 -9
v 17 91 -9

# faces
f 4/2/1 2/2/1 1/2/1
f 5/2/1 2/2/1 4/2/1
f 7/2/1 4/2/1 3/2/1
f 7/2/1 6/2/1 5/2/1
f 7/2/1 5/2/1 4/2/1
f 8/2/1 6/2/1 7/2/1
f 11/1/1 10/1/1 9/1/1
f 12/1/1 10/1/1 11/1/1
f 15/1/1 14/1/1 13/1/1
f 17/1/1 15/1/1 13/1/1
f 17/1/1 16/1/1 15/1/1
f 18/1/1 16/1/1 17/1/1
f 21/1/1 20/1/1 19/1/1
f 22/1/1 20/1/1 21/1/1
f 23/1/1 20/1/1 22/1/1
f 24/1/1 20/1/1 23/1/1
f 25/1/1 20/1/1 24/1/1
f 26/1/1 20/1/1 25/1/1
f 29/1/1 28/1/1 27/1/1
f 30/1/1 28/1/1 29/1/1
f 31/1/1 29/1/1 27/1/1
f 32/1/1 29/1/1 31/1/1
f 35/2/1 34/2/1 33/2/1
f 36/2/1 34/2/1 35/2/1
f 37/2/1 35/2/1 33/2/1
f 38/2/1 35/2/1 37/2/1
f 41/2/1 40/2/1 39/2/1
f 42/2/1 40/2/1 41/2/1
f 45/1/1 44/1/1 43/1/1
f 46/1/1 44/1/1 45/1/1
f 49/1/1 48/1/1 47/1/1
f 51/1/1 50/1/1 49/1/1
f 52/1/1 50/1/1 51/1/1
f 53/1/1 49/1/1 47/1/1
f 53/1/1 51/1/1 49/1/1
f 54/1/1 51/1/1 53/1/1
f 57/1/1 56/1/1 55/1/1
f 59/1/1 57/1/1 55/1/1
f 59/1/1 58/1/1 57/1/1
f 60/1/1 58/1/1 59/1/1
f 61/1/1 58/1/1 60/1/1
f 62/1/1 58/1/1 61/1/1
f 63/1/1 58/1/1 62/1/1
f 64/1/1 58/1/1 63/1/1
f 65/1/1 63/1/1 62/1/1
f 66/1/1 63/1/1 65/1/1
f 67/1/1 58/1/1 64/1/1
f 68/1/1 58/1/1 67/1/1
f 72/1/1 70/1/1 69/1/1
f 73/1/1 70/1/1 72/1/1
f 75/1/1 72/1/1 71/1/1
f 75/1/1 74/1/1 73/1/1
f 75/1/1 73/1/1 72/1/1
f 76/1/1 74/1/1 75/1/1
f 77/1/1 74/1/1 76/1/1
f 78/1/1 74/1/1 77/1/1
f 81/1/1 80/1/1 79/1/1
f 82/1/1 80/1/1 81/1/1
f 83/1/1 80/1/1 82/1/1
f 84/1/1 80/1/1 83/1/1
f 85/2/1 82/2/1 81/2/1
f 86/1/1 83/1/1 82/1/1
f 86/2/1 82/2/1 85/2/1
f 87/1/1 74/1/1 78/1/1
f 89/1/1 87/1/1 78/1/1
f 89/1/1 88/1/1 87/1/1
f 90/1/1 88/1/1 89/1/1
f 91/1/1 83/1/1 86/1/1
f 92/1/1 83/1/1 91/1/1
f 93/1/1 88/1/1 90/1/1
f 94/1/1 88/1/1 93/1/1
f 98/2/1 96/2/1 95/2/1
f 99/2/1 98/2/1 97/2/1
f 100/2/1 96/2/1 98/2/1
f 100/2/1 98/2/1 99/2/1
f 103/1/1 102/1/1 101/1/1
f 105/1/1 103/1/1 101/1/1
f 105/1/1 104/1/1 103/1/1
f 106/1/1 104/1/1 105/1/1
f 109/1/1 108/1/1 107/1/1
f 110/1/1 108/1/1 109/1/1
f 113/1/1 112/1/1 111/1/1
f 114/1/1 112/1/1 113/1/1
f 115/1/1 114/1/1 113/1/1
f 116/1/1 114/1/1 115/1/1
f 119/1/1 118/1/1 117/1/1
f 120/1/1 118/1/1 119/1/1
f 121/1/2 122/1/2 123/1/2
f 123/1/2 124/1/2 125/1/2
f 125/1/2 124/1/2 126/1/2
f 121/1/2 123/1/2 127/1/2
f 123/1/2 125/1/2 127/1/2
f 127/1/2 125/1/2 128/1/2
f 129/2/2 130/2/2 131/2/2
f 131/2/2 130/2/2 132/2/2
f 133/1/2 134/1/2 136/1/2
f 135/1/2 136/1/2 137/1/2
f 136/1/2 134/1/2 138/1/2
f 137/1/2 136/1/2 138/1/2
f 135/1/2 137/1/2 139/1/2
f 139/1/2 137/1/2 140/1/2
f 141/1/2 142/1/2 143/1/2
f 141/1/2 143/1/2 146/1/2
f 143/1/2 144/1/2 146/1/2
f 145/1/2 146/1/2 147/1/2
f 147/1/2 146/1/2 148/1/2
f 148/1/2 146/1/2 149/1/2
f 146/1/2 144/1/2 150/1/2
f 149/1/2 146/1/2 150/1/2
f 147/2/2 148/2/2 151/2/2
f 148/1/2 149/1/2 152/1/2
f 151/2/2 148/2/2 152/2/2
f 152/1/2 149/1/2 153/1/2
f 153/1/2 149/1/2 154/1/2
f 155/1/2 156/1/2 157/1/2
f 155/1/2 157/1/2 159/1/2
f 157/1/2 158/1/2 159/1/2
f 159/1/2 158/1/2 160/1/2
f 160/1/2 158/1/2 161/1/2
f 161/1/2 158/1/2 162/1/2
f 163/1/2 164/1/2 166/1/2
f 165/1/2 166/1/2 167/1/2
f 166/1/2 164/1/2 168/1/2
f 167/1/2 166/1/2 168/1/2
f 169/1/2 170/1/2 171/1/2
f 171/1/2 170/1/2 172/1/2
f 169/1/2 171/1/2 173/1/2
f 173/1/2 171/1/2 174/1/2
f 175/1/2 176/1/2 177/1/2
f 177/1/2 176/1/2 178/1/2
f 179/1/2 180/1/2 182/1/2
f 181/1/2 182/1/2 183/1/2
f 182/1/2 180/1/2 184/1/2
f 183/1/2 182/1/2 184/1/2
f 185/2/2 186/2/2 187/2/2
f 187/2/2 186/2/2 188/2/2
f 188/2/2 186/2/2 189/2/2
f 189/2/2 186/2/2 190/2/2
f 188/2/2 189/2/2 191/2/2
f 191/2/2 189/2/2 192/2/2
f 193/1/2 194/1/2 195/1/2
f 195/1/2 194/1/2 196/1/2
f 196/1/2 194/1/2 197/1/2
f 196/1/2 197/1/2 199/1/2
f 197/1/2 198/1/2 199/1/2
f 199/1/2 198/1/2 200/1/2
f 200/1/2 198/1/2 203/1/2
f 203/1/2 198/1/2 204/1/2
f 201/2/2 202/2/2 207/2/2
f 207/2/2 202/2/2 208/2/2
f 205/1/2 206/1/2 209/1/2
f 209/1/2 206/1/2 210/1/2
f 201/2/2 207/2/2 211/2/2
f 211/2/2 207/2/2 212/2/2
f 212/2/2 207/2/2 213/2/2
f 212/2/2 213/2/2 215/2/2
f 213/2/2 214/2/2 215/2/2
f 215/2/2 214/2/2 216/2/2
f 217/1/2 218/1/2 219/1/2
f 219/1/2 218/1/2 220/1/2
f 217/1/2 219/1/2 221/1/2
f 221/1/2 219/1/2 222/1/2
f 223/1/2 224/1/2 225/1/2
f 225/1/2 224/1/2 226/1/2
f 227/2/2 228/2/2 229/2/2
f 229/2/2 228/2/2 230/2/2
f 233/2/3 232/2/3 231/2/3
f 234/2/3 232/2/3 233/2/3
f 237/2/3 236/2/3 235/2/3
f 238/2/3 236/2/3 237/2/3
f 239/2/3 236/2/3 238/2/3
f 241/2/3 240/2/3 239/2/3
f 241/2/3 239/2/3 238/2/3
f 242/2/3 240/2/3 241/2/3
f 245/1/3 244/1/3 243/1/3
f 246/1/3 244/1/3 245/1/3
f 250/1/3 248/1/3 247/1/3
f 251/2/3 249/2/3 248/2/3
f 251/1/3 248/1/3 250/1/3
f 252/2/3 249/2/3 251/2/3
f 255/2/3 254/2/3 253/2/3
f 256/2/3 254/2/3 255/2/3
f 259/1/3 258/1/3 257/1/3
f 260/1/3 258/1/3 259/1/3
f 263/1/3 262/1/3 261/1/3
f 264/1/3 262/1/3 263/1/3
f 265/1/3 263/1/3 261/1/3
f 266/1/3 263/1/3 265/1/3
f 269/1/3 268/1/3 267/1/3
f 270/1/3 268/1/3 269/1/3
f 273/1/3 272/1/3 271/1/3
f 274/1/3 272/1/3 273/1/3
f 275/1/3 269/1/3 267/1/3
f 276/1/3 269/1/3 275/1/3
f 279/1/3 278/1/3 277/1/3
f 281/1/3 279/1/3 277/1/3
f 281/1/3 280/1/3 279/1/3
f 282/1/3 280/1/3 281/1/3
f 286/2/3 284/2/3 283/2/3
f 287/2/3 284/2/3 286/2/3
f 288/1/3 286/1/3 285/1/3
f 288/1/3 287/1/3 286/1/3
f 289/1/3 287/1/3 288/1/3
f 292/1/3 291/1/3 290/1/3
f 293/1/3 291/1/3 292/1/3
f 294/1/3 292/1/3 290/1/3
f 295/1/3 292/1/3 294/1/3
f 298/1/3 297/1/3 296/1/3
f 299/1/3 297/1/3 298/1/3
f 300/1/3 298/1/3 296/1/3
f 303/1/3 300/1/3 296/1/3
f 303/1/3 301/1/3 300/1/3
f 304/1/3 301/1/3 303/1/3
f 304/1/3 303/1/3 302/1/3
f 305/1/3 301/1/3 304/1/3
f 306/1/3 304/1/3 302/1/3
f 307/1/3 304/1/3 306/1/3
f 310/1/3 309/1/3 308/1/3
f 311/1/3 309/1/3 310/1/3
f 314/2/3 313/2/3 312/2/3
f 315/2/3 313/2/3 314/2/3
f 318/1/3 317/1/3 316/1/3
f 320/1/3 318/1/3 316/1/3
f 320/1/3 319/1/3 318/1/3
f 321/1/3 319/1/3 320/1/3
f 324/1/3 323/1/3 322/1/3
f 325/1/3 323/1/3 324/1/3
f 328/1/3 327/1/3 326/1/3
f 329/1/3 327/1/3 328/1/3
f 330/1/3 327/1/3 329/1/3
f 331/1/3 327/1/3 330/1/3
f 332/1/3 330/1/3 329/1/3
f 333/1/3 330/1/3 332/1/3
f 336/1/3 335/1/3 334/1/3
f 337/1/3 335/1/3 336/1/3
f 341/1/3 339/1/3 338/1/3
f 342/1/3 341/1/3 340/1/3
f 343/1/3 339/1/3 341/1/3
f 343/1/3 341/1/3 342/1/3
f 346/2/3 345/2/3 344/2/3
f 347/2/3 345/2/3 346/2/3
f 350/1/3 349/1/3 348/1/3
f 351/1/3 349/1/3 350/1/3
f 352/1/4 353/1/4 354/1/4
f 354/1/4 353/1/4 355/1/4
f 356/2/4 357/2/4 358/2/4
f 358/2/4 357/2/4 359/2/4
f 360/2/4 361/2/4 362/2/4
f 360/2/4 362/2/4 364/2/4
f 362/2/4 363/2/4 364/2/4
f 364/2/4 363/2/4 365/2/4
f 366/1/4 367/1/4 368/1/4
f 368/1/4 367/1/4 369/1/4
f 370/1/4 371/1/4 372/1/4
f 372/1/4 371/1/4 373/1/4
f 373/1/4 371/1/4 374/1/4
f 374/1/4 371/1/4 375/1/4
f 376/1/4 377/1/4 378/1/4
f 376/1/4 378/1/4 380/1/4
f 378/1/4 379/1/4 380/1/4
f 380/1/4 379/1/4 381/1/4
f 376/1/4 380/1/4 382/1/4
f 382/1/4 380/1/4 383/1/4
f 384/1/4 385/1/4 386/1/4
f 386/1/4 385/1/4 387/1/4
f 384/1/4 386/1/4 388/1/4
f 384/1/4 388/1/4 390/1/4
f 388/1/4 389/1/4 390/1/4
f 390/1/4 389/1/4 391/1/4
f 391/1/4 389/1/4 392/1/4
f 392/1/4 389/1/4 393/1/4
f 394/2/4 395/2/4 396/2/4
f 396/2/4 395/2/4 397/2/4
f 397/2/4 395/2/4 398/2/4
f 398/2/4 395/2/4 399/2/4
f 400/2/4 401/2/4 402/2/4
f 402/2/4 401/2/4 403/2/4
f 404/1/4 405/1/4 406/1/4
f 406/1/4 407/1/4 408/1/4
f 408/1/4 409/1/4 410/1/4
f 406/1/4 408/1/4 412/1/4
f 410/1/4 411/1/4 412/1/4
f 408/1/4 410/1/4 412/1/4
f 412/1/4 411/1/4 413/1/4
f 406/1/4 412/1/4 414/1/4
f 414/1/4 412/1/4 415/1/4
f 404/1/4 406/1/4 416/1/4
f 406/1/4 414/1/4 416/1/4
f 416/1/4 414/1/4 417/1/4
f 413/1/4 411/1/4 418/1/4
f 413/1/4 418/1/4 420/1/4
f 418/1/4 419/1/4 420/1/4
f 420/1/4 419/1/4 421/1/4
f 422/2/4 423/2/4 424/2/4
f 424/2/4 423/2/4 425/2/4
f 426/1/4 427/1/4 428/1/4
f 428/1/4 427/1/4 429/1/4
f 426/1/4 428/1/4 430/1/4
f 430/1/4 428/1/4 431/1/4
f 432/1/4 433/1/4 434/1/4
f 434/1/4 435/1/4 436/1/4
f 434/1/4 436/1/4 438/1/4
f 436/1/4 437/1/4 438/1/4
f 432/1/4 434/1/4 438/1/4
f 438/1/4 437/1/4 439/1/4
f 439/1/4 437/1/4 440/1/4
f 440/1/4 437/1/4 441/1/4
f 439/1/4 440/1/4 442/1/4
f 439/1/4 442/1/4 444/1/4
f 442/1/4 443/1/4 444/1/4
f 444/1/4 443/1/4 445/1/4
f 445/1/4 443/1/4 446/1/4
f 446/1/4 443/1/4 447/1/4
f 448/1/4 449/1/4 450/1/4
f 450/1/4 449/1/4 451/1/4
f 452/2/4 453/2/4 454/2/4
f 454/2/4 453/2/4 455/2/4
f 452/2/4 454/2/4 456/2/4
f 456/2/4 454/2/4 457/2/4
f 458/2/4 459/2/4 460/2/4
f 460/2/4 459/2/4 461/2/4
f 464/1/5 463/1/5 462/1/5
f 465/1/5 463/1/5 464/1/5
f 468/1/5 467/1/5 466/1/5
f 469/1/5 467/1/5 468/1/5
f 472/1/5 471/1/5 470/1/5
f 473/1/5 471/1/5 472/1/5
f 476/1/5 475/1/5 474/1/5
f 477/1/5 475/1/5 476/1/5
f 480/1/5 479/1/5 478/1/5
f 481/1/5 479/1/5 480/1/5
f 482/1/5 480/1/5 478/1/5
f 483/1/5 480/1/5 482/1/5
f 486/1/5 485/1/5 484/1/5
f 487/1/5 485/1/5 486/1/5
f 490/1/5 489/1/5 488/1/5
f 491/1/5 489/1/5 490/1/5
f 494/1/5 493/1/5 492/1/5
f 495/1/5 493/1/5 494/1/5
f 498/1/5 497/1/5 496/1/5
f 499/1/5 497/1/5 498/1/5
f 502/1/5 501/1/5 500/1/5
f 503/1/5 501/1/5 502/1/5
f 506/2/5 505/2/5 504/2/5
f 507/2/5 505/2/5 506/2/5
f 508/2/5 506/2/5 504/2/5
f 509/2/5 506/2/5 508/2/5
f 510/2/5 505/2/5 507/2/5
f 511/2/5 505/2/5 510/2/5
f 514/1/5 513/1/5 512/1/5
f 515/1/5 513/1/5 514/1/5
f 520/1/5 517/1/5 516/1/5
f 521/1/5 517/1/5 520/1/5
f 522/1/5 519/1/5 518/1/5
f 523/1/5 519/1/5 522/1/5
f 528/2/5 525/2/5 524/2/5
f 529/2/5 527/2/5 526/2/5
f 530/2/5 528/2/5 524/2/5
f 530/2/5 529/2/5 528/2/5
f 531/2/5 527/2/5 529/2/5
f 531/2/5 529/2/5 530/2/5
f 534/1/5 533/1/5 532/1/5
f 535/1/5 533/1/5 534/1/5
f 538/2/5 537/2/5 536/2/5
f 539/2/5 537/2/5 538/2/5
f 540/2/5 538/2/5 536/2/5
f 541/2/5 537/2/5 539/2/5
f 542/2/5 537/2/5 541/2/5
f 546/2/5 541/2/5 540/2/5
f 546/2/5 542/2/5 541/2/5
f 546/2/5 543/2/5 542/2/5
f 547/2/5 545/2/5 544/2/5
f 548/2/5 540/2/5 536/2/5
f 548/2/5 547/2/5 546/2/5
f 548/2/5 546/2/5 540/2/5
f 549/2/5 547/2/5 548/2/5
f 550/2/5 547/2/5 549/2/5
f 551/2/5 547/2/5 550/2/5
f 552/2/5 547/2/5 551/2/5
f 554/2/5 547/2/5 552/2/5
f 555/2/5 547/2/5 554/2/5
f 555/2/5 554/2/5 553/2/5
f 556/2/5 545/2/5 547/2/5
f 556/2/5 547/2/5 555/2/5
f 557/2/5 555/2/5 553/2/5
f 558/2/5 545/2/5 556/2/5
f 559/2/5 557/2/5 553/2/5
f 559/2/5 558/2/5 557/2/5
f 560/2/5 545/2/5 558/2/5
f 560/2/5 558/2/5 559/2/5
f 564/2/5 562/2/5 561/2/5
f 565/2/5 564/2/5 563/2/5
f 566/2/5 564/2/5 565/2/5
f 567/2/5 562/2/5 564/2/5
f 567/2/5 564/2/5 566/2/5
f 568/2/5 562/2/5 567/2/5
f 569/2/5 562/2/5 568/2/5
f 572/2/5 568/2/5 567/2/5
f 573/2/5 568/2/5 572/2/5
f 574/2/5 562/2/5 569/2/5
f 576/2/5 571/2/5 570/2/5
f 576/2/5 574/2/5 573/2/5
f 576/2/5 573/2/5 572/2/5
f 576/2/5 572/2/5 571/2/5
f 577/2/5 576/2/5 575/2/5
f 578/2/5 562/2/5 574/2/5
f 578/2/5 576/2/5 577/2/5
f 578/2/5 574/2/5 576/2/5
f 581/2/5 580/2/5 579/2/5
f 582/2/5 580/2/5 581/2/5
f 583/1/6 584/1/6 585/1/6
f 585/1/6 584/1/6 586/1/6
f 587/1/6 588/1/6 589/1/6
f 589/1/6 588/1/6 590/1/6
f 590/1/6 588/1/6 591/1/6
f 591/1/6 588/1/6 592/1/6
f 593/1/6 594/1/6 595/1/6
f 595/1/6 594/1/6 596/1/6
f 596/1/6 594/1/6 597/1/6
f 597/1/6 594/1/6 598/1/6
f 599/1/6 600/1/6 601/1/6
f 601/1/6 600/1/6 602/1/6
f 603/1/6 604/1/6 605/1/6
f 605/1/6 604/1/6 606/1/6
f 606/1/6 604/1/6 607/1/6
f 607/1/6 604/1/6 608/1/6
f 609/1/6 610/1/6 611/1/6
f 611/1/6 610/1/6 612/1/6
f 613/1/6 614/1/6 616/1/6
f 616/1/6 614/1/6 617/1/6
f 615/1/6 616/1/6 619/1/6
f 617/1/6 618/1/6 619/1/6
f 616/1/6 617/1/6 619/1/6
f 619/1/6 618/1/6 620/1/6
f 615/1/6 619/1/6 621/1/6
f 621/1/6 619/1/6 622/1/6
f 622/1/6 619/1/6 623/1/6
f 623/1/6 619/1/6 624/1/6
f 625/1/6 626/1/6 627/1/6
f 627/1/6 626/1/6 628/1/6
f 628/1/6 626/1/6 629/1/6
f 629/1/6 626/1/6 630/1/6
f 631/1/6 632/1/6 633/1/6
f 633/1/6 632/1/6 634/1/6
f 635/1/6 636/1/6 637/1/6
f 637/1/6 636/1/6 638/1/6
f 635/1/6 637/1/6 639/1/6
f 639/1/6 637/1/6 640/1/6
f 641/1/6 642/1/6 644/1/6
f 643/1/6 644/1/6 645/1/6
f 644/1/6 642/1/6 646/1/6
f 645/1/6 644/1/6 646/1/6
f 647/1/6 648/1/6 652/1/6
f 649/1/6 650/1/6 653/1/6
f 653/1/6 650/1/6 654/1/6
f 651/1/6 652/1/6 655/1/6
f 655/1/6 652/1/6 656/1/6
f 656/1/6 652/1/6 657/1/6
f 652/1/6 648/1/6 658/1/6
f 657/1/6 652/1/6 658/1/6
f 659/1/6 660/1/6 663/1/6
f 663/1/6 660/1/6 664/1/6
f 659/1/6 663/1/6 665/1/6
f 665/1/6 663/1/6 666/1/6
f 661/1/6 662/1/6 667/1/6
f 667/1/6 662/1/6 668/1/6
f 669/2/6 670/2/6 671/2/6
f 671/2/6 670/2/6 672/2/6
f 673/2/6 674/2/6 675/2/6
f 673/2/6 675/2/6 677/2/6
f 675/2/6 676/2/6 677/2/6
f 677/2/6 676/2/6 678/2/6
f 679/2/6 680/2/6 682/2/6
f 681/2/6 682/2/6 683/2/6
f 682/2/6 680/2/6 684/2/6
f 683/2/6 682/2/6 684/2/6
f 685/2/6 686/2/6 687/2/6
f 687/2/6 686/2/6 688/2/6
