# Blender v2.76 (sub 0) OBJ File: 'hexTile.blend'
# www.blender.org
mtllib hexTile.mtl
o Cylinder
v 0.000000 -1.000000 -1.000000
v 0.000000 1.000000 -1.000000
v 0.866025 -1.000000 -0.500000
v 0.866025 1.000000 -0.500000
v 0.866025 -1.000000 0.500000
v 0.866025 1.000000 0.500000
v -0.000000 -1.000000 1.000000
v -0.000000 1.000000 1.000000
v -0.866025 -1.000000 0.500000
v -0.866025 1.000000 0.500000
v -0.866025 -1.000000 -0.500000
v -0.866025 1.000000 -0.500000
vt 0.366042 0.366041
vt 0.366042 0.731414
vt 0.183356 0.731414
vt 0.183356 0.366041
vt 0.816645 0.000223
vt 0.816645 0.365595
vt 0.633959 0.365595
vt 0.633959 0.000223
vt 0.999777 0.000223
vt 0.999777 0.365595
vt 0.817091 0.365595
vt 0.817091 0.000223
vt 0.182910 0.366042
vt 0.182909 0.731414
vt 0.000223 0.731414
vt 0.000223 0.366041
vt 0.158434 0.000223
vt 0.316645 0.091566
vt 0.316645 0.274252
vt 0.158434 0.365595
vt 0.000223 0.274252
vt 0.000223 0.091566
vt 0.366488 0.366041
vt 0.731860 0.366041
vt 0.731860 0.548728
vt 0.366488 0.548728
vt 0.366488 0.549174
vt 0.731860 0.549174
vt 0.731860 0.731860
vt 0.366488 0.731860
vt 0.633513 0.091566
vt 0.633513 0.274252
vt 0.475302 0.365595
vt 0.317091 0.274252
vt 0.317091 0.091566
vt 0.475302 0.000223
vn 0.500000 0.000000 -0.866000
vn 1.000000 0.000000 0.000000
vn 0.500000 0.000000 0.866000
vn -0.500000 0.000000 0.866000
vn 0.000000 1.000000 0.000000
vn -0.500000 0.000000 -0.866000
vn -1.000000 0.000000 0.000000
vn 0.000000 -1.000000 0.000000
usemtl Material.001
s off
f 1/1/1 2/2/1 4/3/1 3/4/1
f 3/5/2 4/6/2 6/7/2 5/8/2
f 5/9/3 6/10/3 8/11/3 7/12/3
f 7/13/4 8/14/4 10/15/4 9/16/4
f 4/17/5 2/18/5 12/19/5 10/20/5 8/21/5 6/22/5
f 11/23/6 12/24/6 2/25/6 1/26/6
f 9/27/7 10/28/7 12/29/7 11/30/7
f 1/31/8 3/32/8 5/33/8 7/34/8 9/35/8 11/36/8
